<svg xmlns="http://www.w3.org/2000/svg" width="28" height="32" viewBox="0 0 28 32">
  <metadata><?xpacket begin="﻿" id="W5M0MpCehiHzreSzNTczkc9d"?>
<x:xmpmeta xmlns:x="adobe:ns:meta/" x:xmptk="Adobe XMP Core 5.6-c138 79.159824, 2016/09/14-01:09:01        ">
   <rdf:RDF xmlns:rdf="http://www.w3.org/1999/02/22-rdf-syntax-ns#">
      <rdf:Description rdf:about=""/>
   </rdf:RDF>
</x:xmpmeta>
                                                                                                    
                                                                                                    
                                                                                                    
                                                                                                    
                                                                                                    
                                                                                                    
                                                                                                    
                                                                                                    
                                                                                                    
                                                                                                    
                                                                                                    
                                                                                                    
                                                                                                    
                                                                                                    
                                                                                                    
                                                                                                    
                                                                                                    
                                                                                                    
                                                                                                    
                                                                                                    
                           
<?xpacket end="w"?></metadata>
<defs>
    <style>
      .cls-1 {
        fill: #f4f4f4;
        fill-rule: evenodd;
      }
    </style>
  </defs>
  <path id="icon" class="cls-1" d="M344.5,1451.5a2.005,2.005,0,0,0-2,2v8a2,2,0,0,0,4,0v-8A2.005,2.005,0,0,0,344.5,1451.5Zm-24,0a2.005,2.005,0,0,0-2,2v8a2,2,0,0,0,4,0v-8A2.005,2.005,0,0,0,320.5,1451.5Zm3,13a3,3,0,0,0,3,3h1v4a2,2,0,0,0,4,0v-4h2v4a2,2,0,0,0,4,0v-4h1a3,3,0,0,0,3-3v-11h-18v11Zm12.706-20.2,1.266-2.43a0.251,0.251,0,0,0-.106-0.34,0.245,0.245,0,0,0-.338.1l-1.285,2.47a9.064,9.064,0,0,0-6.486,0l-1.285-2.47a0.245,0.245,0,0,0-.338-0.1,0.251,0.251,0,0,0-.106.34l1.266,2.43a8.993,8.993,0,0,0-5.238,7.2h17.888A8.993,8.993,0,0,0,336.206,1444.3Zm-7.706,5.65a1.45,1.45,0,1,1,1.45-1.45A1.45,1.45,0,0,1,328.5,1449.95Zm8,0a1.45,1.45,0,1,1,1.45-1.45A1.45,1.45,0,0,1,336.5,1449.95Z" transform="translate(-318.5 -1441.5)"/>
</svg>
