<svg xmlns="http://www.w3.org/2000/svg" width="26.062" height="32" viewBox="0 0 26.062 32">
  <metadata><?xpacket begin="﻿" id="W5M0MpCehiHzreSzNTczkc9d"?>
<x:xmpmeta xmlns:x="adobe:ns:meta/" x:xmptk="Adobe XMP Core 5.6-c138 79.159824, 2016/09/14-01:09:01        ">
   <rdf:RDF xmlns:rdf="http://www.w3.org/1999/02/22-rdf-syntax-ns#">
      <rdf:Description rdf:about=""/>
   </rdf:RDF>
</x:xmpmeta>
                                                                                                    
                                                                                                    
                                                                                                    
                                                                                                    
                                                                                                    
                                                                                                    
                                                                                                    
                                                                                                    
                                                                                                    
                                                                                                    
                                                                                                    
                                                                                                    
                                                                                                    
                                                                                                    
                                                                                                    
                                                                                                    
                                                                                                    
                                                                                                    
                                                                                                    
                                                                                                    
                           
<?xpacket end="w"?></metadata>
<defs>
    <style>
      .cls-1 {
        fill: #f4f4f4;
        fill-rule: evenodd;
      }
    </style>
  </defs>
  <path id="icon" class="cls-1" d="M251.234,1456.5a7.244,7.244,0,0,1,3.455-6.09,7.465,7.465,0,0,0-5.852-3.17c-2.492-.25-4.863,1.47-6.127,1.47s-3.213-1.43-5.28-1.4a7.823,7.823,0,0,0-6.62,4.02c-2.821,4.89-.722,12.15,2.028,16.12,1.345,1.94,2.948,4.13,5.052,4.05,2.026-.08,2.792-1.31,5.242-1.31s3.139,1.31,5.283,1.27c2.18-.04,3.562-1.98,4.9-3.93a17.847,17.847,0,0,0,2.217-4.55A7.1,7.1,0,0,1,251.234,1456.5Zm-4.029-11.89a7.05,7.05,0,0,0,1.665-5.11,7.151,7.151,0,0,0-4.713,2.42,6.727,6.727,0,0,0-1.7,4.96A5.978,5.978,0,0,0,247.205,1444.61Z" transform="translate(-229.469 -1439.5)"/>
</svg>
